<?xml version="1.0" encoding="utf-8" ?>
<svg baseProfile="full" height="200mm" version="1.1" viewBox="0,0,200,200" width="200mm" xmlns="http://www.w3.org/2000/svg" xmlns:ev="http://www.w3.org/2001/xml-events" xmlns:xlink="http://www.w3.org/1999/xlink"><defs /><rect fill="#1a1a1a" height="200" width="200" x="0" y="0" /><text alignment-baseline="middle" fill="#e1ed5e" style="dominant-baseline: central; font-size:9.0px; font-family:Arial;" text-anchor="middle" x="100.0" y="100.0">2024</text><line stroke="#e1ed5e" stroke-width="0.3" x1="100.0" x2="100.0" y1="15.0" y2="10.0" /><path d="M 100.0 14.0 a86.0,86.0 0 0,1 42.35913384403234,11.155469271406648" fill="none" id="id25" stroke="none" /><text fill="#e1ed5e" style="font-size:6.75px; font-family:Arial;" text-anchor="middle"><textPath startOffset="22.145653131862478" xlink:href="#id25">January</textPath></text><path d="M 100.72087961077811 79.0123766808444 l 0.4870682681846692 -14.180461190099821 a35.188823596824356,35.188823596824356 0 0,0 0.6035289416351218,0.025918129579018425 l -0.7304229704206273 14.170010492094972" fill="#ffa20e" stroke="none" /><path d="M 103.94208987418118 79.37332000966035 l 9.45388631529806 -49.466728033746065 a71.36202089697333,71.36202089697333 0 0,0 1.2012726279377794,0.24028816918964943 l -10.301655428766797 49.29715046789356" fill="#3dffab" stroke="none" /><path d="M 108.07796709384702 80.6158196554323 l 5.452797774534407 -13.084729637552295 a35.17544190696737,35.17544190696737 0 0,0 0.555378226272883,0.2370579399651869 l -5.67661107597772 12.989197047927705" fill="#ffa20e" stroke="none" /><path d="M 108.73861861582097 80.90454125486305 l 9.893109719412012 -21.6182301589549 a44.77438737645771,44.77438737645771 0 0,0 0.6961591813286979,0.3258376479995713 l -10.262757614612216 21.4452162793848" fill="#e1ff1b" stroke="none" /><line stroke="#e1ed5e" stroke-width="0.3" x1="143.13028292997686" x2="145.6673583964461" y1="26.7553504044142" y2="22.446841604673864" /><path d="M 143.63769802327073 25.89364864446614 a86.0,86.0 0 0,1 29.32050498858742,28.57503671076993" fill="none" id="id26" stroke="none" /><text fill="#e1ed5e" style="font-size:6.75px; font-family:Arial;" text-anchor="middle"><textPath startOffset="20.669276256404974" xlink:href="#id26">February</textPath></text><path d="M 115.6541949942343 86.00192230759917 l 10.374366125689404 -9.27682216110755 a34.91714417251858,34.91714417251858 0 0,0 0.3957092376772481,0.45024447313384874 l -10.532086427325243 9.097365410162404" fill="#ff9e0e" stroke="none" /><path d="M 116.7966241395341 87.39550010848427 l 15.628830268737733 -11.728165599845745 a40.53996427597599,40.53996427597599 0 0,0 0.41292459451310076,0.560211516921592 l -15.82785688283466 11.458147773655279" fill="#ffe815" stroke="none" /><path d="M 117.42321728460499 88.27688183743584 l 10.580887665344262 -7.119293431256808 a33.75302014218478,33.75302014218478 0 0,0 0.31932858166041206,0.48350417264743945 l -10.7015406859254 6.93660938027031" fill="#ff8e0d" stroke="none" /><path d="M 117.62189284568427 88.57770195909679 l 2.9409050654315347 -1.9062591324057376 a24.504674946947453,24.504674946947453 0 0,0 0.22577243212821982,0.3549517631097884 l -2.9731951891856445 1.8554936946172773" fill="#ff0a01" stroke="none" /><line stroke="#e1ed5e" stroke-width="0.3" x1="172.87174338648825" x2="177.1583165268699" y1="56.24261187166439" y2="53.66864786411523" /><path d="M 173.72905801456457 55.72781907015455 a86.0,86.0 0 0,1 12.242430191666344,42.057860355516425" fill="none" id="id27" stroke="none" /><text fill="#e1ed5e" style="font-size:6.75px; font-family:Arial;" text-anchor="middle"><textPath startOffset="22.145653131862474" xlink:href="#id27">March</textPath></text><path d="M 118.18653347947321 89.5 l 46.32861848983865 -26.747840356291825 a74.49568071258363,74.49568071258363 0 0,0 0.6299022545035933,1.1129769276395631 l -46.78095410936361 25.948606658553143" fill="#41ffcd" stroke="none" /><path d="M 119.0197475246899 91.09779779509293 l 9.604709058152029 -4.495488809406055 a31.60470912978016,31.60470912978016 0 0,0 0.2257713025335435,0.4933510412686713 l -9.680464825540623 4.329948785922699" fill="#ff700a" stroke="none" /><path d="M 119.31412917781788 91.75594674310238 l 41.62332947990222 -17.7665242788067 a66.25650165381683,66.25650165381683 0 0,0 0.43752687670524537,1.0499052280257357 l -41.92218220114395 17.049386541339683" fill="#36ff71" stroke="none" /><path d="M 119.83427380445688 93.10060997987247 l 16.317887677986924 -5.676208390839433 a38.276944173308934,38.276944173308934 0 0,0 0.21054976522275723,0.6224529686395712 l -16.412922864782047 5.395253747725699" fill="#ffcb12" stroke="none" /><path d="M 120.05942366710727 93.78553927170692 l 11.903363993203916 -3.6876925926661532 a33.461506771362295,33.461506771362295 0 0,0 0.16527383907377333,0.5501428578736085 l -11.964914152281317 3.4828121312018214" fill="#ff8a0c" stroke="none" /><path d="M 120.16314734710363 94.1308016681162 l 7.081057415367178 -2.0611926131768517 a28.374950108871335,28.374950108871335 0 0,0 0.1321212099501877,0.46885156416312795 l -7.1153971173919475 1.9393331251107104" fill="#ff4306" stroke="none" /><path d="M 120.592083275326 95.88100663000786 l 11.817717747249441 -2.3638745239382892 a33.051819593678744,33.051819593678744 0 0,0 0.10651138946311879,0.5573125971001561 l -11.856555428994715 2.1606593618048184" fill="#ff850c" stroke="none" /><path d="M 120.65975698304385 96.23510406497455 l 42.184722064960276 -7.687461607263687 a63.87945710548467,63.87945710548467 0 0,0 0.18733466782563155,1.0804965817675383 l -42.310471550278145 6.962171992575556" fill="#33ff55" stroke="none" /><path d="M 120.96210409425399 98.7389718711861 l 6.388404816510681 -0.3843105699526839 a27.399953961849587,27.399953961849587 0 0,0 0.02421426640452442,0.46975029935451673 l -6.394060672371777 0.27458847722143653" fill="#ff3405" stroke="none" /><path d="M 120.98066250479742 99.09900007780936 l 49.575977848091256 -2.1290058011009645 a70.62167112558339,70.62167112558339 0 0,0 0.04161739452308318,1.2116450329790796 l -49.60521992961119 1.2776545035577649" fill="#3cffa3" stroke="none" /><path d="M 120.99303781780057 99.45929381324524 l 42.49515790189898 -1.094524526850236 a63.509251099580716,63.509251099580716 0 0,0 0.01871577831177381,1.09010025825423 l -42.50768511180942 0.3648773526269394" fill="#33ff50" stroke="none" /><line stroke="#e1ed5e" stroke-width="0.3" x1="184.99686870605535" x2="189.99668451229388" y1="99.2704041080226" y2="99.22748670261217" /><path d="M 185.99683186730306 99.26182062694052 a86.0,86.0 0 0,1 -10.086455211305974,41.156179273409016" fill="none" id="id28" stroke="none" /><text fill="#e1ed5e" style="font-size:6.75px; font-family:Arial;" text-anchor="middle"><textPath startOffset="21.40746469413373" xlink:href="#id28">April</textPath></text><path d="M 120.77682067341334 103.0534771498775 l 12.961343182033321 1.9048710993931457 a34.10057063595876,34.10057063595876 0 0,0 -0.09008803695793341,0.5784298220671362 l -12.92673365293712 -2.1270891033917323" fill="#ff930d" stroke="none" /><path d="M 120.7213421655516 103.40968896794604 l 13.930001311284004 2.2921764147845924 a35.117330103417885,35.117330103417885 0 0,0 -0.10298605636211638,0.5939962056172191 l -13.888600437429654 -2.5309656533224" fill="#ffa10e" stroke="none" /><path d="M 120.51834098615036 104.47187691870673 l 10.163876737097244 2.215169628766998 a31.402469265088854,31.402469265088854 0 0,0 -0.11931314131539873,0.5257157153876434 l -10.12435273422418 -2.389319678093658" fill="#ff6e0a" stroke="none" /><path d="M 120.16314734710363 105.8691983318838 l 27.95325869806102 8.136786211848175 a50.1134326677231,50.1134326677231 0 0,0 -0.24752141207364584,0.8239182788168097 l -27.809460965983746 -8.615442094255709" fill="#a2ff22" stroke="none" /><path d="M 119.94978838288452 106.5578916946017 l 7.5317544506844865 2.4758372875923964 a28.928246677547214,28.928246677547214 0 0,0 -0.15912543902892856,0.4704260857514669 l -7.488143590083193 -2.6047650478180238" fill="#ff4a06" stroke="none" /><path d="M 119.83427380445688 106.89939002012753 l 38.894755331601885 13.529614918891365 a62.1807293786628,62.1807293786628 0 0,0 -0.35934489256848096,1.0051516195616135 l -38.65677026898946 -14.195301494833899" fill="#31ff40" stroke="none" /><line stroke="#e1ed5e" stroke-width="0.3" x1="174.33088141563837" x2="178.70328620479359" y1="141.23008692659167" y2="143.65538615756765" /><path d="M 175.20536237346943 141.71514677278685 a86.0,86.0 0 0,1 -30.301960400862466,31.631185727798858" fill="none" id="id29" stroke="none" /><text fill="#e1ed5e" style="font-size:6.75px; font-family:Arial;" text-anchor="middle"><textPath startOffset="22.145653131862474" xlink:href="#id29">May</textPath></text><path d="M 116.35404254752997 113.17365903436017 l 6.079456381971358 4.897179719179081 a28.806545913669577,28.806545913669577 0 0,0 -0.31351560453893795,0.38243806061327057 l -5.994493958193793 -5.0008200614908445" fill="#ff4906" stroke="none" /><path d="M 116.1254893667686 113.45245675266167 l 10.95888514811631 9.142291756815279 a35.27160335268385,35.27160335268385 0 0,0 -0.39185984838103943,0.4616099160752907 l -10.800330736228156 -9.329068455340126" fill="#ffa30f" stroke="none" /><path d="M 115.6541949942343 113.99807769240083 l 10.612379471775045 9.489655162840453 a35.23643751654805,35.23643751654805 0 0,0 -0.4070686074121904,0.4474397074701578 l -10.447913163520974 -9.670432445868283" fill="#ffa20f" stroke="none" /><path d="M 115.16444852881244 114.52719865689866 l 10.12217695643056 9.696816551354281 a35.0173719922071,35.0173719922071 0 0,0 -0.41956347534530297,0.43050908722907827 l -9.954226679934449 -9.869148330651097" fill="#ff9f0e" stroke="none" /><path d="M 114.39649973595853 115.28858382429668 l 9.388892942232875 9.970678942614354 a34.69546455062418,34.69546455062418 0 0,0 -0.437113666215561,0.4045858837209988 l -9.216349504703347 -10.130382572467733" fill="#ff9b0e" stroke="none" /><path d="M 113.86319453409587 115.77377054828091 l 9.45158791627125 10.754172044653513 a35.317287819451415,35.317287819451415 0 0,0 -0.4588228969651285,0.39632029048028966 l -9.265585539543267 -10.914836467598521" fill="#ffa40f" stroke="none" /><path d="M 113.59037401385872 116.0094264158162 l 9.938307737430629 11.707301525173927 a36.35678578626443,36.35678578626443 0 0,0 -0.4792614968102858,0.39981698616494604 l -9.735871906458447 -11.876180695250744" fill="#ffb110" stroke="none" /><path d="M 113.31354834802062 116.24036423190432 l 6.781543805062276 8.272380778577329 a31.696804201524593,31.696804201524593 0 0,0 -0.42375492198944875,0.3413469691176762 l -6.638538112717574 -8.387576041488408" fill="#ff720a" stroke="none" /><path d="M 113.03279911837588 116.46651593811092 l 8.864096723048366 11.199496642377628 a35.28288961513687,35.28288961513687 0 0,0 -0.4781504528095641,0.37181268417187746 l -8.670536325603571 -11.350010378170298" fill="#ffa30f" stroke="none" /><line stroke="#e1ed5e" stroke-width="0.3" x1="143.1302829299769" x2="145.66735839644613" y1="173.24464959558577" y2="177.55315839532614" /><path d="M 143.63769802327073 174.10635135553383 a86.0,86.0 0 0,1 -40.68552437913181,11.842963189579606" fill="none" id="id30" stroke="none" /><text fill="#e1ed5e" style="font-size:6.75px; font-family:Arial;" text-anchor="middle"><textPath startOffset="21.407464694133747" xlink:href="#id30">June</textPath></text><path d="M 110.65571695917076 118.09573695890943 l 5.659256073227271 9.610654043892781 a32.153109452244806,32.153109452244806 0 0,0 -0.47802109298570683,0.27598560671361805 l -5.493442512381167 -9.706386547882571" fill="#ff780b" stroke="none" /><path d="M 110.34350942703117 118.27599006163325 l 14.573673325716006 25.75028434413327 a50.588327056601244,50.588327056601244 0 0,0 -0.7594411483835161,0.4212492031191654 l -14.129487989176395 -25.99666646268558" fill="#9dff22" stroke="none" /><path d="M 109.71004243097381 118.62028667847754 l 10.304595514924173 19.760420611714995 a43.28584554101742,43.28584554101742 0 0,0 -0.6618050803967241,0.3379223895984583 l -9.963863212813866 -19.934400952986287" fill="#f3ff19" stroke="none" /><path d="M 109.06512990194946 118.94263497670748 l 4.4824660216368635 9.366629994469402 a31.383942367348872,31.383942367348872 0 0,0 -0.48796244695931457,0.22839106384530689 l -4.321014860806042 -9.442197289885243" fill="#ff6d0a" stroke="none" /><path d="M 108.4095320186766 119.2426549942271 l 8.314636449485677 19.025515360967344 a41.76302998209847,41.76302998209847 0 0,0 -0.6593883760318814,0.28145368807149074 l -7.986812998283364 -19.165443698698237" fill="#fff817" stroke="none" /><path d="M 106.72888874123015 119.89276391827305 l 3.557182861348645 10.5161790596049 a32.101512145772986,32.101512145772986 0 0,0 -0.5235256189072544,0.1720932694749053 l -3.3761345047936566 -10.575693250481825" fill="#ff770b" stroke="none" /><path d="M 106.38641147887787 120.00534299687104 l 12.624002870547752 39.54450919018547 a62.510645087353936,62.510645087353936 0 0,0 -1.0250536276698907,0.3175642341107972 l -11.943308610006236 -39.755390012102914" fill="#31ff44" stroke="none" /><path d="M 106.0420521117495 120.11202640906438 l 3.5850740444181133 11.93354551172691 a33.46042793745134,33.46042793745134 0 0,0 -0.5515234339035974,0.16054043362068598 l -3.379690598132909 -11.993329639650113" fill="#ff8a0c" stroke="none" /><path d="M 105.69591212413111 120.21278271476187 l 8.445672894964769 29.970713625066328 a52.137968235652096,52.137968235652096 0 0,0 -0.8635502414207561,0.23536445833658268 l -7.929941252609318 -30.11127857754705" fill="#8bff24" stroke="none" /><path d="M 105.3480935250658 120.30758222061773 l 0.7306918822247794 2.774556093058424 a23.86915878617354,23.86915878617354 0 0,0 -0.39713132071673973,0.10094922875624433 l -0.6829552682826424 -2.7866905536499385" fill="#ff0000" stroke="none" /><path d="M 104.9986988182912 120.39639698878246 l 2.6876171842677263 10.966395263425293 a32.290930484368765,32.290930484368765 0 0,0 -0.5395166301326547,0.12732445568368575 l -2.4989684003951926 -11.010915862755203" fill="#ff7a0b" stroke="none" /><path d="M 103.94208987418118 120.62667999033965 l 1.346797493232553 7.0470135870430335 a28.17455670991223,28.17455670991223 0 0,0 -0.4758350791715177,0.08671300232552283 l -1.2256276805099784 -7.06909476329992" fill="#ff4006" stroke="none" /><path d="M 103.2317021107853 120.74984581791261 l 4.626583773558039 29.705986713502316 a51.0641135581365,51.0641135581365 0 0,0 -0.8672993957421662,0.12746314407911913 l -4.115959272208188 -29.78103093088032" fill="#97ff23" stroke="none" /><path d="M 102.875027216393 120.80226474461374 l 0.8534809218926375 6.175362789769425 a27.23406250123493,27.23406250123493 0 0,0 -0.46365625448591763,0.06002958486480244 l -0.7473468455159444 -6.189103970834622" fill="#ff3204" stroke="none" /><path d="M 102.51750503828377 120.84855314841334 l 1.2440907590612245 10.302856168033708 a31.377697578748947,31.377697578748947 0 0,0 -0.5353096444234893,0.05998256220672088 l -1.067045213036936 -10.3226944907474" fill="#ff6d0a" stroke="none" /><path d="M 102.15924093988457 120.88869738790638 l 0.6405701475525057 6.1969350991771055 a27.229954633650923,27.229954633650923 0 0,0 -0.46537345747731157,0.04407135027006112 l -0.534097126690179 -6.207018204952351" fill="#ff3204" stroke="none" /><path d="M 101.80034050326958 120.92268563240118 l 1.0726906402670584 12.466291241222018 a33.51235719281884,33.51235719281884 0 0,0 -0.5735895349174396,0.044399457636361696 l -0.8585321105743828 -12.482868465853434" fill="#ff8b0c" stroke="none" /><path d="M 101.44090949804482 120.95050786540614 l 0.4277670711877006 6.219639333101908 a27.23433220971267,27.23433220971267 0 0,0 -0.46668706007456306,0.02807473464788437 l -0.32093565898067233 -6.226066045574484" fill="#ff3204" stroke="none" /><path d="M 101.08105385017728 120.97215588758144 l 2.3988812679962654 46.537655732844804 a67.59944240489071,67.59944240489071 0 0,0 -1.1594084643804543,0.04978998808807764 l -1.5996470430149816 -46.57197828935872" fill="#38ff81" stroke="none" /><path d="M 100.72087961077811 120.9876233191556 l 0.890795576510586 25.93454126687574 a46.949835211083936,46.949835211083936 0 0,0 -0.8057188341260589,0.02075245908562314 l -0.4454634283137832 -25.94601144331141" fill="#c7ff1e" stroke="none" /><line stroke="#e1ed5e" stroke-width="0.3" x1="101.45913802915013" x2="101.54496967792366" y1="184.9874750549273" y2="189.98673829345242" /><path d="M 101.47630435890484 185.9873277026323 a86.0,86.0 0 0,1 -42.54439059252881,-10.42667462771756" fill="none" id="id31" stroke="none" /><text fill="#e1ed5e" style="font-size:6.75px; font-family:Arial;" text-anchor="middle"><textPath startOffset="22.145653131862474" xlink:href="#id31">July</textPath></text><path d="M 100.0 121.0 l 7.679699239776411e-16 6.270950322267055 a27.270950322267055,27.270950322267055 0 0,0 -0.4681421259562761,-0.004018437116083206 l 0.10764920110742317 -6.270026283345406" fill="#ff3204" stroke="none" /><path d="M 99.63950707515114 120.99690560180557 l -0.10698178254242363 6.231152497924891 a27.232070807860865,27.232070807860865 0 0,0 -0.4673369404493246,-0.012036941827718414 l 0.21393203706249214 -6.228397838747125" fill="#ff3204" stroke="none" /><path d="M 99.27912038922189 120.98762331915562 l -0.21390995923239658 6.22775506681292 a27.231427656875493,27.231427656875493 0 0,0 -0.46705041638421024,-0.020057154473796215 l 0.32078613621744556 -6.223165343913295" fill="#ff3204" stroke="none" /><path d="M 98.91894614982273 120.97215588758144 l -0.3204561181186189 6.216763080961101 a27.22501689382773,27.22501689382773 0 0,0 -0.4665274329777843,-0.028065131878129743 l 0.4271279032288495 -6.21034597125828" fill="#ff3204" stroke="none" /><path d="M 98.55909050195518 120.95050786540614 l -0.453171506362931 6.589014245042619 a27.604579709228574,27.604579709228574 0 0,0 -0.47247342065214987,-0.036572430889227216 l 0.5662139217903169 -6.580264047158337" fill="#ff3705" stroke="none" /><path d="M 98.19965949673042 120.92268563240118 l -1.2213666607810127 14.194131965040944 a35.24658270467218,35.24658270467218 0 0,0 -0.6023816153282388,-0.057046165265388644 l 1.4648478394942668 -14.171074044270371" fill="#ffa30f" stroke="none" /><path d="M 97.84075906011543 120.88869738790638 l -0.6458967661263241 6.248465301959948 a27.28175940818254,27.28175940818254 0 0,0 -0.4654321398626871,-0.052152642070156234 l 0.7530648075898105 -6.236456899382821" fill="#ff3304" stroke="none" /><path d="M 97.12497278360702 120.80226474461374 l -0.8549692723253421 6.186131752079569 a27.244933827568357,27.244933827568357 0 0,0 -0.4627420902701694,-0.06800715187067165 l 0.9610364682031964 -6.1705435269100155" fill="#ff3204" stroke="none" /><path d="M 96.76829788921471 120.74984581791261 l -0.9599541300425527 6.163594139501674 a27.237900660341197,27.237900660341197 0 0,0 -0.46138733497567525,-0.07592111039177368 l 1.0656189680712915 -6.146207030614232" fill="#ff3204" stroke="none" /><path d="M 96.41257539226777 120.69131181640829 l -1.0660230036266554 6.1485374003293 a27.240265796222896,27.240265796222896 0 0,0 -0.4600560060360675,-0.08383752957165902 l 1.17141374321378 -6.1293316968262745" fill="#ff3204" stroke="none" /><path d="M 96.05791012581884 120.62667999033965 l -1.170132432757977 6.122627339091252 a27.233440097055535,27.233440097055535 0 0,0 -0.4584341326376789,-0.09169966572421986 l 1.2750630509266139 -6.10163827670417" fill="#ff3204" stroke="none" /><path d="M 95.35216902796893 120.47920084513623 l -2.303592211377017 10.150052324614965 a31.408174636733307,31.408174636733307 0 0,0 -0.5247675518929569,-0.12384371337877458 l 2.4774919170098615 -10.109012467589963" fill="#ff6e0a" stroke="none" /><path d="M 95.00130118170881 120.39639698878247 l -1.4832772690772134 6.052277427444239 a27.231386163263533,27.231386163263533 0 0,0 -0.4530715325514258,-0.1151690118521275 l 1.586954094854018 -6.0259231837568485" fill="#ff3204" stroke="none" /><path d="M 94.6519064749342 120.30758222061772 l -1.6091294157623537 6.110126489197187 a27.318460507960847,27.318460507960847 0 0,0 -0.4524699363095142,-0.12332269318559022 l 1.713780753006563 -6.081603301867453" fill="#ff3304" stroke="none" /><path d="M 94.30408787586889 120.21278271476187 l -1.6928474301766114 6.007318324037968 a27.241282389715906,27.241282389715906 0 0,0 -0.4490141499564484,-0.13070147504998594 l 1.7957215925146666 -5.977373154685465" fill="#ff3204" stroke="none" /><path d="M 93.95794788825049 120.11202640906438 l -1.796318512909346 5.979360108541516 a27.24335707031389,27.24335707031389 0 0,0 -0.4467383428183522,-0.13840068056490187 l 1.8986974885993317 -5.947642840169965" fill="#ff3204" stroke="none" /><path d="M 93.27111125876986 119.89276391827306 l -1.997492178859069 5.9052306956967335 a27.23391727359307,27.23391727359307 0 0,0 -0.4415710302981818,-0.15360132615150968 l 2.0985689812022725 -5.870070936976633" fill="#ff3204" stroke="none" /><path d="M 92.93061703081489 119.77432235084164 l -2.101125179524667 5.877221078628322 a27.241510604581684,27.241510604581684 0 0,0 -0.43899155780570503,-0.1612037806929204 l 2.201705888984491 -5.8402864489266815" fill="#ff3204" stroke="none" /><path d="M 92.59220618246901 119.65005319985036 l -2.4447745352866757 6.485054911535633 a27.93057427158952,27.93057427158952 0 0,0 -0.4471920854568103,-0.1729835054348428 l 2.5557388832370145 -6.442131517962749" fill="#ff3c05" stroke="none" /><path d="M 92.25597844496254 119.51999308798841 l -2.302884802049835 5.8047740568600315 a27.244892333956397,27.244892333956397 0 0,0 -0.43325286906054744,-0.17620017009887876 l 2.4021921323008235 -5.764386630181861" fill="#ff3204" stroke="none" /><path d="M 91.92203290615298 119.3841803445677 l -2.401114755055061 5.761801316997446 a27.24209151514912,27.24209151514912 0 0,0 -0.43012009644860255,-0.18359269265200284 l 2.4996699266740947 -5.71973397468604" fill="#ff3204" stroke="none" /><path d="M 91.59046798132341 119.24265499422711 l -2.5022454499142626 5.725627275886404 a27.248523025002868,27.248523025002868 0 0,0 -0.42700589140514617,-0.1909943039298512 l 2.6001647441750437 -5.681829221046698" fill="#ff3204" stroke="none" /><path d="M 91.26138138417905 119.09545874513695 l -2.7836128504535984 6.082696440377397 a27.689371905268107,27.689371905268107 0 0,0 -0.4305186872799869,-0.20150448380991717 l 2.887620251605075 -6.034015724996953" fill="#ff3905" stroke="none" /><path d="M 90.93487009805054 118.94263497670748 l -2.692517431507576 5.626325869031583 a27.23740273699768,27.23740273699768 0 0,0 -0.4200263672903789,-0.20545594403140416 l 2.7887040480600245 -5.579276174902958" fill="#ff3204" stroke="none" /><path d="M 90.6110303473126 118.78422872680471 l -2.792219564199427 5.586309562132664 a27.24526577646403,27.24526577646403 0 0,0 -0.41655777038100755,-0.21269736564816602 l 2.887704556294017 -5.537554244811662" fill="#ff3204" stroke="none" /><path d="M 90.28995756902619 118.62028667847754 l -2.957148064873137 5.670721328981947 a27.395451904951965,27.395451904951965 0 0,0 -0.4151209139398597,-0.2210285048945121 l 3.054057794599559 -5.619122356364862" fill="#ff3405" stroke="none" /><path d="M 89.97174638481275 118.45085714620012 l -3.065847534416902 5.640814149722703 a27.420140604067957,27.420140604067957 0 0,0 -0.41163612795282184,-0.22832762123078634 l 3.1622278505258263 -5.587353613058768" fill="#ff3505" stroke="none" /><line stroke="#e1ed5e" stroke-width="0.3" x1="58.13341422392154" x2="55.67067388415222" y1="173.97424548756322" y2="178.32567169271397" /><path d="M 57.64086615596768 174.84453072859336 a86.0,86.0 0 0,1 -31.369924170532247,-30.572349798747897" fill="none" id="id32" stroke="none" /><text fill="#e1ed5e" style="font-size:6.75px; font-family:Arial;" text-anchor="middle"><textPath startOffset="22.145653131862474" xlink:href="#id32">August</textPath></text><path d="M 89.34428304082925 118.09573695890944 l -3.309049186932732 5.6194889466628455 a27.521385017249486,27.521385017249486 0 0,0 -0.4050456477620486,-0.24321827357438275 l 3.4050275912522077 -5.561856672552544" fill="#ff3605" stroke="none" /><path d="M 88.72937992617639 117.7192867562869 l -3.3435149974981395 5.2565609191470495 a27.229809406009068,27.229809406009068 0 0,0 -0.39225755124861733,-0.25425660559807006 l 3.4332581810037666 -5.198390471845085" fill="#ff3204" stroke="none" /><path d="M 86.68645165197938 116.24036423190432 l -17.28418467755544 21.083894937500517 a48.263045789188745,48.263045789188745 0 0,0 -0.6362118945698684,-0.530750590110317 l 17.643570906287202 -20.784082163478327" fill="#b7ff1f" stroke="none" /><path d="M 81.99639281039703 110.81064883170644 l -16.366267226671688 9.82747322856446 a40.090152775527464,40.090152775527464 0 0,0 -0.34921632893133053,-0.5930456725071594 l 16.532557265732787 -9.545076387763741" fill="#ffe215" stroke="none" /><line stroke="#e1ed5e" stroke-width="0.3" x1="26.387840678322732" x2="22.057713659400548" y1="142.50000000000003" y2="145.00000000000006" /><path d="M 25.521815274538298 143.00000000000003 a86.0,86.0 0 0,1 -11.493303480769221,-40.785679425670985" fill="none" id="id33" stroke="none" /><text fill="#e1ed5e" style="font-size:6.75px; font-family:Arial;" text-anchor="middle"><textPath startOffset="21.40746469413373" xlink:href="#id33">September</textPath></text><path d="M 80.83023694016515 108.57439118712176 l -18.09895364477017 8.095431755909232 a40.82695484309487,40.82695484309487 0 0,0 -0.28066804665553113,-0.6422234171534676 l 18.235255573442668 -7.783546268979915" fill="#ffec16" stroke="none" /><path d="M 80.41425534168474 107.57618678355246 l -12.772633656322824 4.94072908568768 a34.694925133668704,34.694925133668704 0 0,0 -0.21010142401704707,-0.5573189887559928 l 12.855565764154306 -4.720741816737543" fill="#ff9b0e" stroke="none" /><path d="M 79.64726062577567 105.17358676015961 l -36.68115364813686 9.324205816820841 a58.84769275758642,58.84769275758642 0 0,0 -0.24046981306369952,-0.9811988978248098 l 36.835810987716854 -8.693151094387932" fill="#43ff2d" stroke="none" /><path d="M 79.2786578344484 103.40968896794605 l -5.696954514331954 0.9374316973878798 a26.773566395706794,26.773566395706794 0 0,0 -0.0707313101795636,-0.4541457505711311 l 5.712207316649785 -0.8394977648852987" fill="#ff2b04" stroke="none" /><line stroke="#e1ed5e" stroke-width="0.3" x1="15.003131293944662" x2="10.003315487706104" y1="100.72959589197737" y2="100.7725132973878" /><path d="M 14.003168132696942 100.73817937305945 a86.0,86.0 0 0,1 10.791469493833604,-42.45332614584628" fill="none" id="id34" stroke="none" /><text fill="#e1ed5e" style="font-size:6.75px; font-family:Arial;" text-anchor="middle"><textPath startOffset="22.145653131862435" xlink:href="#id34">October</textPath></text><path d="M 79.34024301695615 96.23510406497455 l -12.941116947036534 -2.3583025990370805 a34.15424262302856,34.15424262302856 0 0,0 0.11006401107595493,-0.5759014145735358 l 12.89872664367842 2.580106578643931" fill="#ff940d" stroke="none" /><path d="M 79.407916724674 95.88100663000787 l -42.225016771176236 -8.446185934799644 a64.06146883434565,64.06146883434565 0 0,0 0.2249542552284824,-1.0764875456253837 l 42.07380480512338 9.169789931710437" fill="#33ff57" stroke="none" /><path d="M 80.05021161711548 93.44210830539832 l -19.09426868099057 -6.276665375808658 a41.099443392833855,41.099443392833855 0 0,0 0.22607547033969771,-0.6683519570807973 l 18.983707789078505 6.603519007363618" fill="#ffef16" stroke="none" /><path d="M 80.83023694016515 91.42560881287825 l -23.706911012231505 -10.603799756036649 a46.970333055392,46.970333055392 0 0,0 0.33553712615434844,-0.7332091754573292 l 23.521389421222107 11.009197913708649" fill="#c7ff1e" stroke="none" /><line stroke="#e1ed5e" stroke-width="0.3" x1="26.387840678322718" x2="22.05771365940052" y1="57.49999999999999" y2="54.99999999999999" /><path d="M 25.521815274538284 56.99999999999999 a86.0,86.0 0 0,1 29.574782752854787,-30.34633250058573" fill="none" id="id35" stroke="none" /><text fill="#e1ed5e" style="font-size:6.75px; font-family:Arial;" text-anchor="middle"><textPath startOffset="21.40746469413373" xlink:href="#id35">November</textPath></text><path d="M 81.99639281039701 89.18935116829357 l -54.01082156880897 -32.43194649511929 a84.0,84.0 0 0,0 0.752928142178428,-1.2298515355018278 l 53.44612546217515 33.35433514674566" fill="#4dd2ff" stroke="none" /><path d="M 83.42222388311158 87.10902102172516 l -6.532161724770673 -5.07944846660865 a29.274656096992306,29.274656096992306 0 0,0 0.31189158572956466,-0.39406482987505503 l 6.444003708399547 5.190833240398388" fill="#ff4f07" stroke="none" /><path d="M 84.34580500576568 86.00192230759919 l -13.93624590240645 -12.461877021088554 a39.69538255134341,39.69538255134341 0 0,0 0.45858052728179005,-0.504060330967023 l 13.720267674282795 12.699274927613235" fill="#ffdd14" stroke="none" /><path d="M 84.58840730492382 85.73525988315684 l -4.155480046226818 -3.846250293072643 a26.662301275237006,26.662301275237006 0 0,0 0.3137824866352758,-0.3332261270103954 l 4.08884172585527 3.9170178800275495" fill="#ff2a04" stroke="none" /><path d="M 87.25179093698888 83.31218511350988 l -5.609252793923409 -7.342691966679404 a30.240067219651372,30.240067219651372 0 0,0 0.4152206189487814,-0.31158929336143637 l 5.482379186063876 7.437900287304842" fill="#ff5d08" stroke="none" /><path d="M 89.03521579738668 82.08984904055464 l -23.43284932778125 -38.275798329936386 a65.87911725304386,65.87911725304386 0 0,0 0.9695751033251352,-0.582201991391297 l 22.77234146789868 38.672414321863606" fill="#36ff6d" stroke="none" /><line stroke="#e1ed5e" stroke-width="0.3" x1="56.869717070023135" x2="54.33264160355391" y1="26.7553504044142" y2="22.446841604673864" /><path d="M 56.362301976729285 25.89364864446614 a86.0,86.0 0 0,1 42.16139366436587,-11.88097634709845" fill="none" id="id36" stroke="none" /><text fill="#e1ed5e" style="font-size:6.75px; font-family:Arial;" text-anchor="middle"><textPath startOffset="22.145653131862474" xlink:href="#id36">December</textPath></text><path d="M 89.34428304082924 81.90426304109057 l -3.048468353533189 -5.1769657231388475 a27.007839328830947,27.007839328830947 0 0,0 0.40152623167986423,-0.2318212779470644 l 2.959149653992925 5.228533898362087" fill="#ff2f04" stroke="none" /><path d="M 90.93487009805054 81.0573650232925 l -8.37961462714831 -17.51017170679639 a40.41195648308049,40.41195648308049 0 0,0 0.6283314231551749,-0.2940908323500757 l 8.077794490121612 17.651438770717007" fill="#ffe615" stroke="none" /><path d="M 91.26138138417902 80.90454125486306 l -4.406095621659509 -9.62811410698271 a31.588402140280024,31.588402140280024 0 0,0 0.49501522712252577,-0.22141401475241068 l 4.240166991681365 9.702331872644967" fill="#ff700a" stroke="none" /><path d="M 93.95794788825049 79.88797359093562 l -12.23188380560952 -40.71596298427039 a63.513628675642465,63.513628675642465 0 0,0 1.0468860306373808,-0.3047332660380584 l 11.531137762590514 40.919939944610974" fill="#33ff50" stroke="none" /><path d="M 95.00130118170881 79.60360301121753 l -4.188687617412947 -17.09127487219917 a38.597067389577596,38.597067389577596 0 0,0 0.644879519377943,-0.15218981065729908 l 3.8946759442950984 17.1606608265027" fill="#ffcf13" stroke="none" /><path d="M 97.48249496171623 79.15144685158666 l -1.9203672408274215 -15.903395574594816 a37.01892009911046,37.01892009911046 0 0,0 0.6315500015723743,-0.0707664949634286 l 1.647081337654248 15.934017830065216" fill="#ffba11" stroke="none" /></svg>