<?xml version="1.0" encoding="utf-8" ?>
<svg baseProfile="full" height="200mm" version="1.1" viewBox="0,0,200,200" width="200mm" xmlns="http://www.w3.org/2000/svg" xmlns:ev="http://www.w3.org/2001/xml-events" xmlns:xlink="http://www.w3.org/1999/xlink"><defs /><rect fill="#1a1a1a" height="200" width="200" x="0" y="0" /><text alignment-baseline="middle" fill="#e1ed5e" style="dominant-baseline: central; font-size:9.0px; font-family:Arial;" text-anchor="middle" x="100.0" y="100.0">2023</text><line stroke="#e1ed5e" stroke-width="0.3" x1="100.0" x2="100.0" y1="15.0" y2="10.0" /><path d="M 100.0 14.0 a86.0,86.0 0 0,1 42.46469731375804,11.215312516191453" fill="none" id="id13" stroke="none" /><text fill="#e1ed5e" style="font-size:6.75px; font-family:Arial;" text-anchor="middle"><textPath startOffset="22.20632615414155" xlink:href="#id13">January</textPath></text><line stroke="#e1ed5e" stroke-width="0.3" x1="143.23703022742887" x2="145.7803849466894" y1="26.81831364943548" y2="22.513508569990506" /><path d="M 143.74570117128098 25.957352633546492 a86.0,86.0 0 0,1 28.547481713284135,27.462654790039103" fill="none" id="id14" stroke="none" /><text fill="#e1ed5e" style="font-size:6.75px; font-family:Arial;" text-anchor="middle"><textPath startOffset="19.985693538727396" xlink:href="#id14">February</textPath></text><line stroke="#e1ed5e" stroke-width="0.3" x1="172.23445277983987" x2="176.4835382374775" y1="55.19839476539836" y2="52.563006222186495" /><path d="M 173.08426987136738 54.67131705675599 a86.0,86.0 0 0,1 12.851231095245387,41.99856678651699" fill="none" id="id15" stroke="none" /><text fill="#e1ed5e" style="font-size:6.75px; font-family:Arial;" text-anchor="middle"><textPath startOffset="22.20632615414155" xlink:href="#id15">March</textPath></text><path d="M 117.84615892207809 88.93136811851018 l 35.94119395540239 -22.29162292068461 a63.29285844416105,63.29285844416105 0 0,0 0.5662727706173443,0.9308035434952017 l -36.31958252430596 21.669651603982327" fill="red" stroke="none" /><line stroke="#e1ed5e" stroke-width="0.3" x1="184.98032266829074" x2="189.97916517819016" y1="98.17113171792111" y2="98.06355123074" /><path d="M 185.9800911702706 98.14961562048488 a86.0,86.0 0 0,1 -9.607161424134198,41.387399972396054" fill="none" id="id16" stroke="none" /><text fill="#e1ed5e" style="font-size:6.75px; font-family:Arial;" text-anchor="middle"><textPath startOffset="21.466115282336823" xlink:href="#id16">April</textPath></text><path d="M 118.81262510543309 109.33194174019688 l 20.450359359887837 10.144334511691733 a43.82815631262525,43.82815631262525 0 0,0 -0.34106931454402606,0.6729621148496182 l -20.27271137555754 -10.494850838244044" fill="red" stroke="none" /><path d="M 118.64920377521936 109.65438752849418 l 32.40236260647556 16.774172732102308 a57.486791765348876,57.486791765348876 0 0,0 -0.4624880609025507,0.874853118051217 l -32.10882203734812 -17.329440865239658" fill="red" stroke="none" /><line stroke="#e1ed5e" stroke-width="0.3" x1="174.80103733775053" x2="179.2010983576182" y1="140.37084112569926" y2="142.7455964860345" /><path d="M 175.68104954172406 140.8457921977663 a86.0,86.0 0 0,1 -30.038265399797805,32.042727171017184" fill="none" id="id17" stroke="none" /><text fill="#e1ed5e" style="font-size:6.75px; font-family:Arial;" text-anchor="middle"><textPath startOffset="22.206326154141568" xlink:href="#id17">May</textPath></text><path d="M 113.20401910651253 116.32954008644616 l 14.902217089092826 18.429718207029875 a44.700856257970486,44.700856257970486 0 0,0 -0.602487734901774,0.4786526946356806 l -14.5827718614737 -18.683504815670684" fill="red" stroke="none" /><line stroke="#e1ed5e" stroke-width="0.3" x1="143.8653032363475" x2="146.44561519142675" y1="172.8068346515853" y2="177.08958963109032" /><path d="M 144.38136562736335 173.6633856474863 a86.0,86.0 0 0,1 -40.68145358897372,12.25698825130547" fill="none" id="id18" stroke="none" /><text fill="#e1ed5e" style="font-size:6.75px; font-family:Arial;" text-anchor="middle"><textPath startOffset="21.466115282336833" xlink:href="#id18">June</textPath></text><line stroke="#e1ed5e" stroke-width="0.3" x1="102.19456741930631" x2="102.32365962044197" y1="184.97166512339345" y2="189.96999836594603" /><path d="M 102.22038585953345 185.97133177190398 a86.0,86.0 0 0,1 -42.740103519485714,-10.115201625700543" fill="none" id="id19" stroke="none" /><text fill="#e1ed5e" style="font-size:6.75px; font-family:Arial;" text-anchor="middle"><textPath startOffset="22.20632615414155" xlink:href="#id19">July</textPath></text><line stroke="#e1ed5e" stroke-width="0.3" x1="58.666819895761336" x2="56.23545636021788" y1="174.27360380694188" y2="178.64263932499728" /><path d="M 58.180547188652646 175.14741091055294 a86.0,86.0 0 0,1 -31.652253787137756,-30.449443065178592" fill="none" id="id20" stroke="none" /><text fill="#e1ed5e" style="font-size:6.75px; font-family:Arial;" text-anchor="middle"><textPath startOffset="22.20632615414155" xlink:href="#id20">August</textPath></text><line stroke="#e1ed5e" stroke-width="0.3" x1="26.63291911575756" x2="22.317208475507996" y1="142.92168965132927" y2="145.44649492493687" /><path d="M 25.769776987707644 143.4266507060508 a86.0,86.0 0 0,1 -11.730757126820373,-40.83630448921669" fill="none" id="id21" stroke="none" /><text fill="#e1ed5e" style="font-size:6.75px; font-family:Arial;" text-anchor="middle"><textPath startOffset="21.46611528233685" xlink:href="#id21">September</textPath></text><path d="M 81.35079622478065 109.6543875284942 l -20.255925814030334 10.486161227801691 a43.809254873383125,43.809254873383125 0 0,0 -0.34092222414670226,-0.6726718915412386 l 20.433426707963303 -10.135935124557767" fill="red" stroke="none" /><path d="M 80.87730276802145 108.67885076344099 l -21.662278818540717 9.831441808730235 a44.78889597376571,44.78889597376571 0 0,0 -0.31258152428564995,-0.704788818151737 l 21.828301427557644 -9.457104654085802" fill="red" stroke="none" /><path d="M 79.76711848015287 105.62410040840567 l -26.364364911139827 7.328458643849066 a48.36395518309345,48.36395518309345 0 0,0 -0.216053127211723,-0.8040140600909434 l 26.486606114693323 -6.873553650582584" fill="red" stroke="none" /><line stroke="#e1ed5e" stroke-width="0.3" x1="15.007084014347285" x2="10.007500721073583" y1="101.09737516637583" y2="101.16192664675087" /><path d="M 14.007167355692545 101.11028546245083 a86.0,86.0 0 0,1 10.666146001902534,-42.60595125391555" fill="none" id="id22" stroke="none" /><text fill="#e1ed5e" style="font-size:6.75px; font-family:Arial;" text-anchor="middle"><textPath startOffset="22.20632615414155" xlink:href="#id22">October</textPath></text><path d="M 81.10775173730289 90.83032412892265 l -36.172323260804255 -17.556855869839897 a61.207961377300045,61.207961377300045 0 0,0 0.4682117201332138,-0.9438862571221198 l 35.86475152771762 18.17690171546098" fill="red" stroke="none" /><path d="M 81.26839172434947 90.50648371742162 l -10.014070959899183 -5.075311436887102 a32.22677172526872,32.22677172526872 0 0,0 0.2550374028781914,-0.4926510855857432 l 9.925224123860877 5.246935244733181" fill="red" stroke="none" /><line stroke="#e1ed5e" stroke-width="0.3" x1="26.266209847984243" x2="21.928928074336255" y1="57.711370442889674" y2="55.22380399835377" /><path d="M 25.398753493254645 57.213857153982495 a86.0,86.0 0 0,1 29.58750427330803,-30.492523968695096" fill="none" id="id23" stroke="none" /><text fill="#e1ed5e" style="font-size:6.75px; font-family:Arial;" text-anchor="middle"><textPath startOffset="21.46611528233685" xlink:href="#id23">November</textPath></text><path d="M 82.54541684631803 88.32363383020206 l -18.987645499097166 -12.701919008762244 a43.84446165057388,43.84446165057388 0 0,0 0.42503141466580946,-0.6236811549001846 l 18.766189618762617 13.026878186932846" fill="red" stroke="none" /><path d="M 85.83668400450813 84.49514656593479 l -17.050651027018688 -18.6656744235224 a46.28106212424849,46.28106212424849 0 0,0 0.5928141520862427,-0.5322343989626952 l 16.726825887336474 18.956407831254374" fill="red" stroke="none" /><path d="M 87.51073957382395 83.11751280151077 l -15.121080413049553 -20.440077137441623 a46.425259610129345,46.425259610129345 0 0,0 0.6465373624987587,-0.46973688979976796 l 14.766997734197012 20.69733326205806" fill="red" stroke="none" /><path d="M 87.80319425747018 82.90503203632743 l -10.038035988657638 -14.069249545061776 a38.28311167790126,38.28311167790126 0 0,0 0.539735107031795,-0.3781189346741636 l 9.794369742042182 14.239953322499883" fill="red" stroke="none" /><line stroke="#e1ed5e" stroke-width="0.3" x1="56.762969772571076" x2="54.21961505331055" y1="26.818313649435495" y2="22.513508569990535" /><path d="M 56.25429882871897 25.957352633546506 a86.0,86.0 0 0,1 42.265352541879196,-11.944610805530505" fill="none" id="id24" stroke="none" /><text fill="#e1ed5e" style="font-size:6.75px; font-family:Arial;" text-anchor="middle"><textPath startOffset="22.20632615414155" xlink:href="#id24">December</textPath></text><path d="M 89.94658935756843 81.56283822128135 l -30.16023192729471 -55.31148533615593 a84.0,84.0 0 0,0 1.2754198138867787,-0.6812850939930022 l 29.20366706687963 55.822449156650684" fill="red" stroke="none" /><path d="M 91.90106846888425 80.62456947434976 l -9.778576816925217 -23.393719903441 a46.355210420841686,46.355210420841686 0 0,0 0.7388493645943099,-0.3013952072207401 l 9.374443582742526 23.558575996845317" fill="red" stroke="none" /></svg>